<svg xmlns="http://www.w3.org/2000/svg" viewBox="0 0 128 128" role="img" aria-label="ResearchIC icon">
  <defs>
    <linearGradient id="bg" x1="0" y1="0" x2="1" y2="1">
      <stop offset="0%" stop-color="#0f172a" />
      <stop offset="100%" stop-color="#1e293b" />
    </linearGradient>
    <linearGradient id="accent" x1="0" y1="0" x2="1" y2="1">
      <stop offset="0%" stop-color="#22c55e" />
      <stop offset="100%" stop-color="#14b8a6" />
    </linearGradient>
  </defs>
  <rect x="8" y="8" width="112" height="112" rx="26" fill="url(#bg)" />
  <circle cx="98" cy="30" r="8" fill="url(#accent)" />
  <path d="M34 36h26c13 0 21 7 21 19 0 10-6 16-14 18l18 19H68L53 76h-7v16H34V36zm12 11v18h12c7 0 11-3 11-9s-4-9-11-9H46z" fill="#f8fafc" />
  <path d="M92 96a5 5 0 1 1 0-10 5 5 0 0 1 0 10z" fill="#f8fafc" />
</svg>
